#!OML:ASF E:\motion texture\Top Level 1\Subject 1\Session 1\male.ASF
:FULLY-SPECIFIED
:DEGREES
319
root -2.06585 17.5872 -4.66949 174.122 -81.161 -168.775
lowerback 5.47613 1.35659 11.9849
upperback -0.33164 2.44016 7.24314
thorax -3.24011 0.896587 0.708663
lowerneck -12.5305 -8.87221 -11.2228
upperneck 1.42799 -10.3424 2.68448
head 3.09575 -5.16747 1.86666
rclavicle 1.70955e-014 -9.54166e-015
rhumerus 11.8733 -35.2268 -83.3117
rradius 38.9926
rwrist -36.3048
rhand -6.50434 -51.9156
rfingers 7.12502
rthumb 19.3475 -80.9731
lclavicle 1.70955e-014 -9.54166e-015
lhumerus -29.1566 -1.4303 73.0592
lradius 58.4408
lwrist -9.90106
lhand -13.5701 20.9057
lfingers 7.12502
lthumb 12.5436 50.5092
rfemur -22.3929 1.57965 16.4527
rtibia 62.6104
rfoot 8.34662 -13.6525
rtoes 3.01373
lfemur -25.0948 -2.74421 -25.8217
ltibia 32.3129
lfoot -8.26713 -3.61048
ltoes 7.42773
320
root -2.21146 17.6126 -4.67126 173.346 -81.8389 -168.1
lowerback 5.26285 1.29747 11.8666
upperback -0.502767 2.34963 7.13975
thorax -3.30867 0.852116 0.673731
lowerneck -12.5349 -8.98035 -11.2701
upperneck 1.69822 -10.4725 2.71383
head 3.19208 -5.2337 1.86398
rclavicle 2.90226e-014 8.90555e-014
rhumerus 13.9737 -33.9166 -83.6041
rradius 39.5421
rwrist -36.0672
rhand -6.58432 -51.089
rfingers 7.12502
rthumb 19.2706 -80.1542
lclavicle 2.90226e-014 8.90555e-014
lhumerus -28.8531 -2.02802 73.4188
lradius 58.8366
lwrist -10.1485
lhand -13.5007 20.7353
lfingers 7.12502
lthumb 12.6105 50.3346
rfemur -23.0853 1.20068 16.3345
rtibia 62.2007
rfoot 7.6491 -13.4822
rtoes 3.30542
lfemur -24.157 -2.92983 -26.0609
ltibia 31.8581
lfoot -8.37143 -3.91271
ltoes 7.80498
321
root -2.35575 17.6388 -4.67285 172.396 -82.5308 -167.228
lowerback 5.04657 1.23449 11.7558
upperback -0.674461 2.25336 7.03921
thorax -3.37609 0.804407 0.638178
lowerneck -12.5412 -9.09104 -11.3152
upperneck 1.95552 -10.6074 2.75554
head 3.28579 -5.30159 1.86429
rclavicle -5.76476e-015 -3.18055e-014
rhumerus 15.9683 -32.6478 -83.736
rradius 40.0344
rwrist -35.7378
rhand -6.71617 -50.2667
rfingers 7.12502
rthumb 19.1438 -79.3446
lclavicle -5.76476e-015 -3.18055e-014
lhumerus -28.5863 -2.63195 73.7943
lradius 59.2492
lwrist -10.3997
lhand -13.4236 20.5502
lfingers 7.12502
lthumb 12.6848 50.145
rfemur -23.7688 0.817351 16.2279
rtibia 61.6577
rfoot 6.91837 -13.3565
rtoes 3.54684
lfemur -23.2241 -3.11144 -26.283
ltibia 31.3611
lfoot -8.45926 -4.21905
ltoes 8.14023
322
root -2.49894 17.6655 -4.67436 171.207 -83.2349 -166.092
lowerback 4.82594 1.16787 11.6516
upperback -0.845558 2.15123 6.94122
thorax -3.44042 0.753542 0.602171
lowerneck -12.5506 -9.20467 -11.3579
upperneck 2.20156 -10.7477 2.80996
head 3.37765 -5.3713 1.86755
rclavicle 5.76476e-015 -1.27222e-014
rhumerus 17.8618 -31.4263 -83.721
rradius 40.4743
rwrist -35.3226
rhand -6.89387 -49.4562
rfingers 7.12502
rthumb 18.9729 -78.5508
lclavicle 5.76476e-015 -1.27222e-014
lhumerus -28.3551 -3.23813 74.1838
lradius 59.6755
lwrist -10.6541
lhand -13.336 20.3536
lfingers 7.12502
lthumb 12.7693 49.9431
rfemur -24.4378 0.430737 16.1331
rtibia 60.981
rfoot 6.16379 -13.2719
rtoes 3.72751
lfemur -22.2984 -3.29057 -26.4872
ltibia 30.8275
lfoot -8.52797 -4.52913
ltoes 8.44357
323
root -2.64114 17.6924 -4.67592 169.696 -83.9507 -164.613
lowerback 4.60073 1.09733 11.5501
upperback -1.01657 2.04278 6.84515
thorax -3.50226 0.699385 0.567178
lowerneck -12.5618 -9.32132 -11.3982
upperneck 2.43717 -10.8937 2.87753
head 3.46781 -5.44291 1.87386
rclavicle -1.59028e-014 2.22639e-014
rhumerus 19.6512 -30.2508 -83.5659
rradius 40.8691
rwrist -34.8325
rhand -7.11409 -48.6609
rfingers 7.12502
rthumb 18.7611 -77.7762
lclavicle -1.59028e-014 2.22639e-014
lhumerus -28.1599 -3.84327 74.5858
lradius 60.1125
lwrist -10.9115
lhand -13.2383 20.1415
lfingers 7.12502
lthumb 12.8635 49.7251
rfemur -25.0886 0.0413559 16.0472
rtibia 60.172
rfoot 5.39255 -13.2224
rtoes 3.84821
lfemur -21.3832 -3.46834 -26.6754
ltibia 30.2652
lfoot -8.57919 -4.84941
ltoes 8.72454
324
root -2.78258 17.7194 -4.67767 167.723 -84.6756 -162.651
lowerback 4.37019 1.02328 11.4491
upperback -1.18724 1.92838 6.75045
thorax -3.56096 0.642215 0.533676
lowerneck -12.5711 -9.44117 -11.4373
upperneck 2.66097 -11.0459 2.96064
head 3.55552 -5.51663 1.88425
rclavicle -1.05356e-014 -1.36764e-013
rhumerus 21.3284 -29.1163 -83.2719
rradius 41.2296
rwrist -34.284
rhand -7.37618 -47.8804
rfingers 7.12502
rthumb 18.509 -77.0198
lclavicle -1.05356e-014 -1.36764e-013
lhumerus -28.001 -4.446 74.9994
lradius 60.5568
lwrist -11.1679
lhand -13.1325 19.9155
lfingers 7.12502
lthumb 12.9655 49.4927
rfemur -25.7162 -0.349873 15.9699
rtibia 59.2348
rfoot 4.61667 -13.1998
rtoes 3.88302
lfemur -20.4801 -3.64779 -26.8474
ltibia 29.6812
lfoot -8.61417 -5.17701
ltoes 8.9882
325
root -2.92343 17.7463 -4.67969 165.056 -85.4053 -159.976
lowerback 4.13333 0.945884 11.3466
upperback -1.35659 1.8079 6.65728
thorax -3.61495 0.582124 0.502859
lowerneck -12.5824 -9.56466 -11.4749
upperneck 2.87517 -11.2046 3.05706
head 3.64198 -5.59259 1.89774
rclavicle -1.0138e-014 -6.04305e-014
rhumerus 22.9002 -28.0285 -82.8526
rradius 41.5611
rwrist -33.6768
rhand -7.66987 -47.1227
rfingers 7.12502
rthumb 18.2265 -76.2887
lclavicle -1.0138e-014 -6.04305e-014
lhumerus -27.8772 -5.04158 75.4237
lradius 61.0071
lwrist -11.4218
lhand -13.0232 19.6751
lfingers 7.12502
lthumb 13.0709 49.2455
rfemur -26.3167 -0.739517 15.8998
rtibia 58.1712
rfoot 3.84564 -13.2027
rtoes 3.81435
lfemur -19.5922 -3.82935 -27.003
ltibia 29.0831
lfoot -8.63528 -5.50973
ltoes 9.2316
326
root -3.06385 17.773 -4.68211 161.27 -86.1318 -156.165
lowerback 3.88965 0.865896 11.2428
upperback -1.52468 1.68234 6.56507
thorax -3.66394 0.519618 0.473937
lowerneck -12.5882 -9.69187 -11.5127
upperneck 3.07683 -11.3707 3.17083
head 3.72558 -5.67111 1.91608
rclavicle 7.95139e-016 -1.59028e-014
rhumerus 24.3616 -26.9875 -82.3139
rradius 41.8743
rwrist -33.0251
rhand -8.00396 -46.3931
rfingers 7.12502
rthumb 17.905 -75.5888
lclavicle 7.95139e-016 -1.59028e-014
lhumerus -27.7871 -5.62974 75.8573
lradius 61.4566
lwrist -11.6719
lhand -12.9072 19.4302
lfingers 7.12502
lthumb 13.1827 48.9934
rfemur -26.8866 -1.1243 15.8385
rtibia 56.9873
rfoot 3.09795 -13.2308
rtoes 3.65088
lfemur -18.7205 -4.01192 -27.1397
ltibia 28.4772
lfoot -8.64363 -5.84931
ltoes 9.45896
327
root -3.20404 17.7992 -4.68501 155.599 -86.8413 -150.452
lowerback 3.63924 0.783585 11.1363
upperback -1.69039 1.55194 6.47433
thorax -3.70678 0.454924 0.448107
lowerneck -12.5907 -9.82292 -11.5505
upperneck 3.26731 -11.5442 3.29988
head 3.80696 -5.7522 1.93851
rclavicle -3.57812e-015 -5.40694e-014
rhumerus 25.712 -25.9925 -81.6623
rradius 42.1772
rwrist -32.3309
rhand -8.36545 -45.6904
rfingers 7.12502
rthumb 17.5572 -74.9176
lclavicle -3.57812e-015 -5.40694e-014
lhumerus -27.7291 -6.20715 76.2997
lradius 61.9015
lwrist -11.9172
lhand -12.7857 19.1827
lfingers 7.12502
lthumb 13.2998 48.7383
rfemur -27.4225 -1.49986 15.7859
rtibia 55.6886
rfoot 2.40173 -13.29
rtoes 3.44055
lfemur -17.8642 -4.19559 -27.2565
ltibia 27.8664
lfoot -8.64066 -6.1951
ltoes 9.67329
